<?xml version="1.0" encoding="utf-8"?>
<!-- Generator: Adobe Illustrator 22.0.1, SVG Export Plug-In . SVG Version: 6.00 Build 0)  -->
<svg version="1.1" id="Lager_1" xmlns="http://www.w3.org/2000/svg" xmlns:xlink="http://www.w3.org/1999/xlink" x="0px" y="0px"
	 viewBox="0 0 368 350" style="enable-background:new 0 0 368 350;" xml:space="preserve">
<style type="text/css">
	.st0{mask:url(#b_2_);}
	.st1{stroke:#000000;stroke-width:4;stroke-miterlimit:1;}
	.st2{mask:url(#d_2_);}
	.st3{mask:url(#f_2_);}
	.st4{mask:url(#h_2_);}
	.st5{mask:url(#j_2_);}
	.st6{mask:url(#l_2_);}
</style>
<defs>
	<filter id="Adobe_OpacityMaskFilter" filterUnits="userSpaceOnUse" x="9.7" y="53.1" width="260.1" height="288">
		<feColorMatrix  type="matrix" values="1 0 0 0 0  0 1 0 0 0  0 0 1 0 0  0 0 0 1 0"/>
	</filter>
</defs>
<mask maskUnits="userSpaceOnUse" x="9.7" y="53.1" width="260.1" height="288" id="b_2_">
</mask>
<g class="st0">
	<path class="st1" d="M235,339.2l-0.4-0.1l-223-51.4l0-0.3L44.4,55.1l0.4,0.1l223,51.4l0,0.3L235,339.2z M12.4,287.1l222,51.2
		L267,107.1L45,55.9L12.4,287.1z"/>
</g>
<g>
	<path class="st1" d="M235.2,338.8l-0.4-0.1l-223-51.5l0-0.3L44.5,54.4l0.4,0.1L268,106L235.2,338.8z M12.6,286.7l222,51.3
		l32.6-231.5l-222-51.3L12.6,286.7z"/>
</g>
<defs>
	<filter id="Adobe_OpacityMaskFilter_1_" filterUnits="userSpaceOnUse" x="98" y="9.2" width="260.1" height="287.9">
		<feColorMatrix  type="matrix" values="1 0 0 0 0  0 1 0 0 0  0 0 1 0 0  0 0 0 1 0"/>
	</filter>
</defs>
<mask maskUnits="userSpaceOnUse" x="98" y="9.2" width="260.1" height="287.9" id="d_2_">
</mask>
<g class="st2">
	<path class="st1" d="M323.4,295.2L100,243.7l0-0.3l32.7-232.2l0.4,0.1l223,51.4l0,0.3L323.4,295.2z M100.8,243.1l222,51.2
		l32.6-231.1L133.4,12L100.8,243.1z"/>
</g>
<g>
	<path class="st1" d="M323.4,295.6l-0.4-0.1L100,244l0-0.3l32.7-232.5l0.4,0.1l223,51.5L323.4,295.6z M100.8,243.5l222,51.3
		l32.6-231.5l-222-51.3L100.8,243.5z"/>
</g>
<defs>
	<filter id="Adobe_OpacityMaskFilter_2_" filterUnits="userSpaceOnUse" x="9.6" y="9.2" width="126.1" height="280.7">
		<feColorMatrix  type="matrix" values="1 0 0 0 0  0 1 0 0 0  0 0 1 0 0  0 0 0 1 0"/>
	</filter>
</defs>
<mask maskUnits="userSpaceOnUse" x="9.6" y="9.2" width="126.1" height="280.7" id="f_2_">
</mask>
<g class="st3">
	<path class="st1" d="M11.6,288.1L44.5,55.2L133.7,11l-32.9,232.9L11.6,288.1z M45.2,55.7L12.5,286.9l87.7-43.5l32.7-231.2
		L45.2,55.7z"/>
</g>
<g>
	<path class="st1" d="M11.7,288.3l32.9-233l0.2-0.1l89-44.2l-0.1,0.7L100.9,244l-0.2,0.1L11.7,288.3z M45.2,55.7L12.6,287.1
		l87.6-43.5l32.6-231.3L45.2,55.7z"/>
</g>
<defs>
	<filter id="Adobe_OpacityMaskFilter_3_" filterUnits="userSpaceOnUse" x="10.1" y="241" width="314.9" height="100.1">
		<feColorMatrix  type="matrix" values="1 0 0 0 0  0 1 0 0 0  0 0 1 0 0  0 0 0 1 0"/>
	</filter>
</defs>
<mask maskUnits="userSpaceOnUse" x="10.1" y="241" width="314.9" height="100.1" id="h_2_">
</mask>
<g class="st4">
	<path class="st1" d="M234.9,339.1L11,287.4l89.2-44.4l0.1,0l223.8,51.7L234.9,339.1z M13.1,287.1l221.7,51.3l87.2-43.4l-221.7-51.3
		L13.1,287.1z"/>
</g>
<g>
	<path class="st1" d="M234.9,338.8l-0.1,0L11.1,287.3l89.1-44.2l0.1,0L324,294.6l-0.9,0.4L234.9,338.8z M13.2,287.1L234.8,338
		l87.1-43.2l-221.6-50.9L13.2,287.1z"/>
</g>
<defs>
	<filter id="Adobe_OpacityMaskFilter_4_" filterUnits="userSpaceOnUse" x="232.1" y="60.5" width="126.1" height="280.7">
		<feColorMatrix  type="matrix" values="1 0 0 0 0  0 1 0 0 0  0 0 1 0 0  0 0 0 1 0"/>
	</filter>
</defs>
<mask maskUnits="userSpaceOnUse" x="232.1" y="60.5" width="126.1" height="280.7" id="j_2_">
</mask>
<g class="st5">
	<path class="st1" d="M234.1,339.4L267,106.5l0.2-0.1l89-44.1l-32.9,232.9l-0.2,0.1L234.1,339.4z M267.6,106.9L235,338.2l87.7-43.5
		l32.7-231.2L267.6,106.9z"/>
</g>
<g>
	<path class="st1" d="M234.3,339l32.9-233l0.2-0.1l89-44.2l-0.1,0.7l-32.8,232.4l-0.2,0.1L234.3,339z M267.8,106.4l-32.6,231.3
		l87.6-43.5l32.6-231.3L267.8,106.4z"/>
</g>
<defs>
	<filter id="Adobe_OpacityMaskFilter_5_" filterUnits="userSpaceOnUse" x="42.8" y="9.3" width="314.9" height="99.9">
		<feColorMatrix  type="matrix" values="1 0 0 0 0  0 1 0 0 0  0 0 1 0 0  0 0 0 1 0"/>
	</filter>
</defs>
<mask maskUnits="userSpaceOnUse" x="42.8" y="9.3" width="314.9" height="99.9" id="l_2_">
</mask>
<g class="st6">
	<path class="st1" d="M267.6,107.3l-0.1,0L43.7,55.6l89.2-44.4l0.1,0l223.8,51.6L267.6,107.3z M45.8,55.4l221.7,51.2l87.2-43.4
		L133,12L45.8,55.4z"/>
</g>
<g>
	<path class="st1" d="M267.7,106.8l-0.1,0L44,55.4l89.1-44.2l0.1,0l223.6,51.4L267.7,106.8z M46.1,55.2l221.6,50.9l87.1-43.2
		L133.2,12L46.1,55.2z"/>
</g>
</svg>
