<?xml version="1.0" standalone="no"?>
<!DOCTYPE svg PUBLIC "-//W3C//DTD SVG 20010904//EN"
 "http://www.w3.org/TR/2001/REC-SVG-20010904/DTD/svg10.dtd">
<svg version="1.0" xmlns="http://www.w3.org/2000/svg"
 width="736.000000pt" height="736.000000pt" viewBox="0 0 736.000000 736.000000"
 preserveAspectRatio="xMidYMid meet">
<metadata>
Created by potrace 1.11, written by Peter Selinger 2001-2013
</metadata>
<g transform="translate(0.000000,736.000000) scale(0.100000,-0.100000)"
fill="#000000" stroke="none">
<path d="M2109 6717 c-300 -150 -575 -286 -610 -303 -166 -81 -295 -145 -309
-154 -8 -5 -28 -16 -45 -24 -137 -63 -285 -138 -286 -144 0 -4 -2 -16 -3 -27
-2 -11 -6 -44 -10 -74 -4 -30 -9 -61 -11 -70 -4 -24 -17 -112 -21 -151 -2 -19
-6 -46 -9 -60 -3 -14 -7 -45 -10 -70 -9 -73 -16 -124 -20 -140 -2 -8 -7 -40
-10 -70 -3 -30 -8 -66 -10 -80 -2 -14 -7 -45 -10 -70 -3 -25 -8 -56 -10 -70
-6 -31 -19 -128 -29 -209 -6 -47 -10 -74 -31 -221 -8 -52 -17 -117 -21 -145
-3 -27 -8 -59 -10 -70 -2 -11 -7 -45 -10 -75 -3 -30 -7 -62 -9 -70 -3 -8 -7
-35 -10 -60 -11 -90 -14 -109 -39 -280 -14 -96 -28 -195 -31 -220 -3 -25 -7
-58 -10 -75 -3 -16 -7 -46 -10 -65 -2 -19 -6 -44 -9 -55 -2 -11 -7 -47 -10
-80 -7 -60 -12 -98 -21 -145 -2 -14 -7 -50 -10 -80 -3 -30 -8 -62 -10 -70 -2
-8 -7 -39 -10 -69 -4 -30 -9 -63 -11 -75 -2 -12 -7 -41 -9 -66 -3 -25 -11 -88
-19 -140 -8 -52 -12 -98 -10 -102 3 -4 0 -8 -6 -8 -6 0 -9 -4 -6 -8 2 -4 -2
-50 -10 -102 -7 -52 -16 -115 -19 -140 -3 -25 -8 -56 -10 -70 -2 -14 -7 -43
-9 -65 -3 -22 -8 -56 -10 -75 -12 -80 -36 -247 -40 -280 -10 -75 -27 -197 -32
-230 -3 -19 -7 -51 -10 -70 -2 -19 -6 -45 -9 -57 -3 -12 -8 -46 -11 -75 -3
-29 -7 -64 -9 -78 -3 -27 -16 -114 -21 -142 -4 -25 26 -45 76 -52 25 -3 83
-15 130 -26 47 -12 105 -26 130 -31 76 -16 92 -19 195 -44 55 -13 123 -29 150
-35 28 -7 58 -14 67 -16 10 -2 27 -6 39 -9 11 -2 28 -6 37 -9 9 -3 33 -8 52
-11 19 -3 78 -16 130 -29 80 -20 193 -46 310 -72 14 -3 43 -10 65 -15 22 -5
51 -12 65 -15 14 -3 79 -18 145 -34 66 -16 131 -31 145 -34 32 -6 255 -57 440
-101 67 -16 290 -67 310 -71 14 -3 50 -11 80 -19 30 -8 66 -16 80 -19 14 -2
126 -27 250 -56 123 -29 233 -54 243 -56 10 -2 26 -5 35 -8 9 -3 28 -7 42 -10
14 -3 104 -23 200 -46 96 -22 191 -43 210 -46 19 -3 38 -8 43 -11 4 -2 20 -7
35 -9 15 -3 72 -16 127 -29 130 -31 195 -46 220 -51 20 -4 41 -9 235 -54 150
-35 184 -42 205 -43 16 0 1263 610 1315 643 8 6 24 14 35 19 32 14 448 220
451 224 3 3 10 42 18 105 11 79 16 118 20 137 2 11 7 47 11 80 13 102 19 143
36 253 5 34 12 84 15 110 3 26 11 88 19 137 7 50 16 113 20 140 9 74 15 117
20 145 3 14 7 45 10 70 3 25 7 56 10 70 2 14 7 45 10 70 5 45 15 111 20 140 1
8 6 40 10 70 3 30 8 66 10 80 2 14 6 45 10 70 3 25 8 56 10 70 2 14 7 45 10
70 4 25 12 88 20 140 8 52 17 117 21 145 3 27 8 59 9 70 2 11 6 40 9 65 6 45
16 112 21 140 2 8 6 40 9 72 4 31 13 98 21 150 9 51 17 116 20 143 3 28 7 59
9 70 4 22 12 78 21 140 3 22 7 54 10 70 3 17 7 48 10 70 3 22 7 51 10 65 3 14
7 45 10 70 2 25 6 56 9 70 2 14 7 48 10 76 4 28 8 61 11 73 2 13 7 49 11 80 3
31 8 65 11 76 2 11 5 34 7 50 4 31 12 93 21 155 3 19 8 53 10 74 3 22 7 51 10
65 2 14 6 44 9 66 3 22 15 103 26 180 11 77 23 158 25 180 3 22 8 51 10 65 2
14 7 45 10 70 6 48 15 114 20 141 5 25 -23 59 -49 59 -13 0 -59 9 -102 19 -44
11 -90 22 -104 24 -14 3 -43 10 -65 16 -22 6 -51 12 -65 15 -14 2 -25 5 -25 6
0 1 -9 3 -20 5 -11 2 -63 13 -115 25 -52 12 -111 26 -130 30 -34 7 -207 47
-242 56 -34 8 -63 14 -98 20 -19 4 -39 9 -45 13 -5 3 -21 7 -34 9 -13 2 -150
33 -305 69 -155 36 -290 67 -301 69 -25 5 -59 12 -82 18 -10 3 -49 12 -88 20
-38 9 -85 20 -103 25 -18 5 -33 9 -35 9 -2 -1 -67 13 -216 49 -36 8 -72 16
-80 18 -9 2 -47 11 -86 20 -38 9 -81 18 -95 21 -14 3 -33 7 -42 10 -10 3 -30
7 -45 10 -16 3 -36 7 -45 10 -9 3 -25 6 -35 8 -17 4 -108 25 -328 76 -49 12
-101 24 -115 26 -14 3 -70 16 -125 29 -145 35 -373 86 -403 91 -15 3 -34 7
-42 10 -8 3 -51 14 -95 24 -44 10 -123 28 -175 40 -52 12 -104 24 -115 26 -21
4 -65 14 -275 63 -74 17 -144 33 -155 35 -12 3 -241 -106 -566 -267z m676 163
c17 -5 73 -18 125 -29 118 -26 117 -26 220 -51 47 -11 101 -23 120 -26 19 -3
38 -8 41 -10 4 -2 24 -6 45 -10 22 -3 47 -10 57 -15 9 -5 17 -8 17 -5 0 2 32
-4 70 -14 39 -10 73 -18 75 -19 6 -1 -2 1 228 -52 98 -22 186 -42 195 -44 28
-5 244 -55 282 -65 68 -17 169 -40 207 -46 21 -3 41 -8 45 -11 5 -2 18 -6 30
-8 13 -3 70 -16 128 -29 58 -14 116 -27 130 -30 14 -2 45 -9 70 -16 25 -7 56
-14 70 -17 14 -2 43 -9 65 -15 22 -5 49 -12 60 -14 11 -2 90 -20 175 -40 85
-20 169 -38 185 -41 17 -3 35 -9 41 -14 6 -5 13 -7 16 -4 2 3 20 0 39 -5 19
-6 45 -12 59 -15 14 -3 34 -7 45 -10 11 -2 90 -20 175 -40 85 -19 193 -44 240
-56 47 -11 96 -23 110 -25 14 -3 61 -13 105 -24 138 -33 379 -88 405 -94 74
-16 250 -57 284 -67 l39 -11 -374 -185 c-206 -103 -572 -285 -814 -405 -462
-230 -446 -225 -530 -204 -78 18 -293 68 -305 70 -8 1 -31 6 -50 11 -19 5 -37
9 -40 10 -3 1 -18 4 -35 8 -16 4 -40 10 -52 12 -28 6 -40 9 -128 30 -85 20
-98 23 -155 35 -80 18 -93 21 -180 41 -47 11 -92 22 -100 24 -8 2 -45 10 -81
19 -37 8 -78 18 -90 21 -13 2 -44 9 -69 15 -25 6 -56 13 -70 16 -14 3 -41 9
-60 14 -19 5 -46 11 -60 14 -14 3 -74 17 -135 31 -147 35 -144 34 -195 45 -78
16 -84 18 -130 30 -25 7 -56 14 -70 17 -14 2 -71 15 -128 28 -56 14 -113 27
-125 30 -12 2 -40 9 -62 14 -22 5 -51 12 -65 15 -14 2 -56 12 -95 21 -38 9
-79 19 -90 22 -11 2 -24 5 -30 7 -5 1 -36 8 -69 15 l-58 13 7 66 c4 37 9 74
10 83 2 9 6 40 10 70 3 30 8 61 10 69 3 8 7 38 10 65 3 28 8 64 10 80 3 17 7
50 10 75 3 25 7 52 10 60 2 8 7 42 10 75 4 33 8 67 10 75 2 8 7 42 11 75 3 33
8 62 9 65 2 3 6 29 10 59 4 30 8 61 10 70 1 9 6 45 11 81 4 36 9 68 10 73 1 4
2 9 3 12 1 5 32 0 86 -15z m-180 -57 c-3 -27 -8 -57 -10 -68 -3 -11 -7 -40
-10 -65 -2 -25 -6 -54 -9 -65 -2 -11 -7 -47 -10 -80 -4 -33 -9 -71 -11 -85 -6
-32 -12 -74 -20 -130 -3 -25 -10 -72 -15 -105 -5 -33 -12 -80 -15 -105 -3 -25
-8 -61 -10 -80 -3 -19 -8 -55 -11 -80 -3 -25 -7 -52 -9 -60 -1 -8 -6 -42 -10
-76 l-7 -61 -42 9 c-22 5 -50 10 -61 13 -11 2 -60 13 -110 25 -49 12 -97 23
-105 25 -19 4 -237 54 -270 62 -14 3 -33 8 -44 10 -19 3 -87 19 -289 67 -59
15 -124 29 -145 32 -20 3 -45 10 -55 16 -10 5 -21 7 -24 4 -3 -2 -16 -1 -30 5
-13 5 -38 11 -56 14 -18 3 -50 11 -72 17 -22 5 -51 12 -64 15 -67 12 -54 21
285 188 186 92 353 174 369 181 17 8 37 19 45 24 25 16 804 399 813 400 5 0 6
-21 2 -47z m-1535 -826 c14 -3 86 -19 160 -37 254 -60 295 -69 390 -90 52 -12
104 -24 115 -26 11 -3 31 -7 45 -10 14 -3 70 -16 125 -29 191 -45 441 -102
485 -111 52 -10 52 -10 45 -76 -4 -35 -9 -66 -11 -70 -3 -4 -7 -29 -9 -55 -7
-75 -14 -136 -19 -162 -3 -13 -8 -49 -12 -80 -3 -31 -8 -58 -9 -61 -2 -3 -6
-33 -10 -65 -3 -33 -8 -67 -11 -76 -3 -9 -7 -39 -9 -65 -3 -27 -7 -62 -10 -79
-2 -16 -7 -48 -10 -70 -3 -22 -8 -56 -11 -75 -3 -19 -7 -51 -10 -70 -2 -19 -8
-66 -14 -105 -6 -38 -13 -90 -16 -115 -3 -25 -7 -52 -9 -60 -2 -8 -7 -42 -10
-75 -4 -33 -8 -67 -10 -75 -3 -8 -7 -37 -10 -65 -3 -27 -8 -57 -10 -65 -2 -8
-7 -42 -11 -75 -3 -33 -8 -69 -10 -80 -5 -24 -12 -77 -19 -130 -3 -33 -42
-300 -59 -420 -3 -16 -8 -52 -11 -80 -3 -27 -8 -59 -10 -70 -2 -11 -7 -47 -11
-79 -3 -33 -8 -69 -10 -80 -2 -12 -7 -41 -10 -66 -3 -25 -7 -58 -10 -75 -6
-34 -12 -71 -19 -135 -3 -25 -12 -85 -19 -135 -8 -49 -17 -110 -20 -135 -3
-25 -8 -56 -11 -69 -2 -13 -7 -49 -10 -80 -3 -31 -8 -63 -10 -71 -3 -8 -42
-33 -87 -55 -46 -22 -84 -43 -86 -47 -2 -5 -8 -8 -14 -8 -9 0 -225 -106 -1142
-562 -187 -92 -343 -168 -347 -168 -4 0 -6 8 -5 17 11 63 16 94 21 138 3 28 8
62 11 77 3 15 7 42 9 60 3 18 9 65 15 103 5 39 12 88 15 110 2 22 7 50 9 63 3
13 8 51 11 85 4 34 8 64 10 67 2 3 7 35 10 70 4 36 8 67 10 70 2 3 6 30 9 60
4 30 8 66 10 80 3 14 7 47 11 75 4 27 9 63 11 80 6 34 9 57 18 135 4 30 9 62
11 70 2 8 7 40 10 70 3 30 8 62 10 70 2 8 7 40 10 70 3 30 8 62 10 70 2 8 6
38 10 65 3 28 15 111 26 185 11 74 22 159 25 189 3 30 7 57 9 60 1 3 6 35 10
71 4 36 8 67 10 70 2 3 6 34 10 70 4 36 9 74 11 85 2 11 6 38 9 60 6 45 13 92
19 133 3 15 7 47 10 72 3 25 8 61 11 80 3 19 7 51 10 70 2 19 4 35 5 35 2 0 7
39 15 100 10 84 18 140 35 250 5 33 12 87 15 120 4 33 8 63 11 66 2 3 6 33 9
65 4 32 8 66 10 74 2 8 7 42 11 74 6 59 11 91 14 91 1 0 3 16 4 35 2 19 7 55
10 80 15 98 35 238 41 285 4 28 8 57 10 65 2 8 7 47 11 85 3 39 8 72 9 75 2 3
6 28 9 55 8 63 13 93 20 104 4 5 28 3 59 -4 28 -8 63 -16 77 -18z m5996 -154
c-4 -20 -15 -100 -22 -153 -2 -19 -7 -51 -10 -70 -3 -19 -8 -48 -10 -65 -2
-16 -6 -46 -9 -65 -3 -19 -7 -51 -10 -70 -7 -59 -17 -134 -21 -154 -2 -11 -6
-42 -9 -69 -3 -28 -8 -53 -9 -56 -2 -3 -7 -37 -11 -76 -3 -38 -8 -72 -10 -75
-2 -3 -6 -30 -9 -60 -4 -30 -8 -66 -10 -80 -2 -14 -7 -47 -10 -75 -4 -27 -9
-62 -12 -77 -3 -15 -7 -42 -9 -60 -3 -18 -7 -49 -9 -68 -3 -19 -8 -55 -11 -80
-4 -25 -8 -56 -10 -70 -2 -14 -7 -50 -10 -80 -3 -30 -8 -62 -10 -70 -3 -8 -7
-35 -10 -60 -3 -25 -12 -88 -20 -140 -7 -52 -17 -117 -20 -143 -4 -27 -8 -56
-10 -65 -1 -10 -6 -46 -10 -82 -3 -36 -8 -72 -10 -80 -4 -14 -11 -65 -19 -127
-6 -45 -18 -126 -22 -148 -3 -11 -7 -40 -9 -65 -3 -25 -7 -61 -10 -80 -3 -19
-8 -48 -10 -65 -2 -16 -7 -46 -9 -65 -3 -19 -8 -54 -11 -77 -3 -23 -8 -55 -10
-70 -13 -89 -16 -111 -20 -143 -10 -81 -17 -133 -35 -245 -5 -33 -11 -80 -14
-105 -3 -25 -8 -56 -10 -69 -3 -13 -8 -49 -11 -80 -4 -31 -8 -63 -10 -71 -2
-8 -7 -40 -10 -70 -3 -30 -8 -62 -10 -70 -2 -8 -7 -39 -10 -69 -4 -30 -8 -63
-11 -74 -2 -10 -6 -45 -10 -76 -3 -31 -8 -65 -10 -76 -3 -11 -7 -38 -9 -60 -7
-53 -15 -114 -20 -145 -2 -14 -6 -45 -10 -70 -3 -25 -8 -56 -10 -70 -3 -14 -7
-45 -10 -70 -11 -93 -16 -111 -34 -106 -54 16 -149 38 -216 51 -11 2 -60 13
-110 25 -49 12 -97 23 -105 25 -8 2 -55 13 -105 24 -49 11 -169 39 -265 61
-96 22 -215 49 -265 61 -89 20 -111 25 -150 33 -11 2 -40 9 -65 15 -25 7 -55
14 -67 16 -12 3 -48 11 -80 18 l-58 14 0 39 c1 38 5 77 26 219 17 119 18 128
29 210 5 44 12 91 15 105 3 14 7 41 9 60 6 48 26 190 32 220 2 14 7 48 10 75
10 84 12 99 17 130 3 17 8 50 12 75 3 25 8 61 11 80 2 19 6 49 8 65 3 17 7 44
10 60 5 31 15 105 21 163 2 18 6 45 9 60 3 15 8 50 11 77 3 28 10 77 15 110 5
33 11 78 15 100 3 22 10 67 15 100 5 33 12 85 15 115 3 30 8 62 11 71 2 9 7
38 9 65 3 27 7 60 9 74 2 14 6 41 10 60 3 19 8 58 11 85 3 28 8 57 10 65 2 8
7 42 10 75 3 33 8 69 10 80 7 33 21 129 30 205 3 25 7 54 9 66 2 12 7 45 11
75 5 48 18 136 30 209 2 14 7 52 10 85 4 33 10 63 13 67 10 10 871 438 882
438 6 0 10 5 10 10 0 6 5 10 11 10 11 0 687 330 749 365 14 8 26 15 27 15 1 0
0 -8 -1 -17z m-4490 -193 c72 -14 140 -29 354 -81 47 -12 96 -23 110 -25 14
-3 63 -14 110 -25 47 -12 96 -23 110 -26 13 -2 63 -13 110 -24 47 -11 92 -22
100 -24 8 -2 38 -9 65 -15 28 -6 61 -14 75 -16 14 -3 34 -8 45 -11 11 -3 30
-7 42 -9 12 -1 37 -7 55 -13 18 -6 44 -12 58 -15 14 -2 84 -18 155 -35 72 -16
141 -32 155 -35 14 -3 115 -26 225 -51 110 -26 211 -49 225 -51 14 -3 32 -7
40 -10 8 -3 26 -8 40 -10 14 -3 63 -14 110 -25 149 -35 464 -108 493 -114 38
-8 57 -17 53 -23 -2 -4 -7 -34 -11 -67 -3 -33 -8 -71 -10 -85 -2 -14 -6 -43
-10 -65 -3 -22 -7 -53 -10 -70 -2 -16 -6 -48 -10 -70 -6 -41 -14 -100 -20
-145 -9 -73 -17 -124 -21 -143 -2 -12 -7 -46 -10 -76 -3 -30 -8 -64 -10 -75
-2 -12 -6 -38 -9 -58 -3 -21 -7 -55 -10 -75 -3 -21 -7 -47 -9 -59 -2 -12 -7
-45 -11 -75 -3 -30 -10 -81 -15 -114 -5 -33 -12 -80 -15 -105 -3 -25 -8 -56
-10 -70 -2 -14 -7 -47 -10 -75 -3 -27 -10 -75 -15 -105 -5 -30 -12 -77 -15
-105 -4 -27 -8 -61 -11 -75 -5 -31 -14 -93 -19 -140 -4 -34 -11 -87 -21 -140
-2 -14 -6 -45 -9 -70 -5 -37 -25 -176 -40 -280 -5 -34 -34 -245 -40 -294 -3
-22 -7 -51 -10 -65 -12 -72 -27 -171 -30 -210 -2 -24 -6 -57 -9 -75 -10 -57
-19 -118 -32 -221 -4 -33 -9 -63 -10 -67 -1 -5 -2 -15 -3 -23 -1 -17 -37 -15
-106 6 -26 7 -221 53 -280 65 -11 2 -29 6 -40 8 -11 3 -51 12 -90 21 -38 9
-77 18 -85 20 -8 2 -55 13 -105 24 -49 12 -101 24 -115 27 -14 3 -41 9 -60 14
-19 5 -49 12 -67 15 -18 3 -43 9 -57 15 -15 5 -26 8 -26 5 0 -2 -21 2 -47 10
-27 7 -61 16 -78 18 -16 3 -61 13 -100 22 -38 9 -77 18 -85 20 -8 2 -55 13
-105 25 -102 24 -113 27 -175 40 -70 16 -87 20 -159 36 -36 9 -73 17 -81 19
-8 2 -67 16 -130 30 -63 15 -142 33 -175 40 -33 7 -158 36 -278 64 -121 28
-229 53 -240 55 -78 15 -112 30 -101 47 3 5 7 24 10 42 2 18 6 55 10 82 4 28
8 61 9 75 1 14 5 39 8 55 4 17 9 55 12 85 3 30 8 62 10 70 2 8 7 35 10 60 10
79 26 194 31 225 2 17 6 46 9 65 2 19 8 64 14 100 6 36 13 92 16 125 4 33 8
62 10 66 2 3 7 30 10 60 3 30 8 65 10 79 3 14 7 43 10 65 3 22 7 56 10 75 3
19 8 55 10 80 3 25 8 52 10 60 2 8 7 36 10 62 8 69 24 186 31 223 2 11 6 43 9
70 3 28 10 77 15 110 5 33 12 83 15 110 4 28 8 57 10 65 2 8 7 42 11 75 3 33
8 62 9 65 2 3 6 34 10 70 4 36 8 67 10 70 2 3 6 37 10 75 4 39 9 72 10 75 2 3
6 30 10 60 3 30 8 62 10 70 4 14 15 96 20 145 1 11 5 43 9 70 4 28 10 64 12
80 2 17 6 41 9 55 2 14 7 48 10 75 3 28 8 66 12 85 6 34 10 67 12 103 1 9 3
17 5 17 2 0 25 -4 52 -10z m-481 -3403 c11 -3 72 -17 135 -32 63 -14 151 -35
195 -45 44 -10 91 -21 105 -24 14 -3 104 -24 200 -46 96 -23 186 -43 200 -46
13 -3 63 -14 110 -25 47 -11 92 -22 100 -24 8 -2 56 -13 105 -25 50 -12 99
-23 110 -26 11 -2 31 -6 45 -9 14 -3 35 -7 48 -10 13 -2 32 -7 42 -10 10 -3
27 -8 37 -10 10 -2 41 -9 68 -15 28 -6 57 -13 65 -15 8 -2 54 -12 102 -24 48
-11 98 -23 110 -25 13 -3 122 -28 243 -56 121 -28 290 -67 375 -86 85 -20 164
-38 175 -40 11 -3 31 -7 44 -10 14 -3 28 -7 31 -9 4 -2 22 -7 40 -10 45 -8 50
-12 44 -38 -3 -12 -7 -38 -10 -57 -2 -19 -7 -51 -9 -70 -12 -76 -15 -96 -20
-130 -2 -19 -7 -51 -9 -70 -12 -81 -18 -126 -21 -150 -10 -81 -17 -128 -21
-155 -6 -35 -10 -61 -19 -130 -3 -27 -8 -61 -10 -75 -3 -14 -7 -45 -10 -70 -4
-25 -12 -83 -18 -130 l-12 -85 -30 3 c-17 2 -84 16 -150 32 -66 16 -131 31
-145 34 -14 3 -63 15 -110 26 -47 11 -100 23 -119 26 -19 3 -45 10 -58 15 -13
5 -23 7 -23 4 0 -2 -15 1 -32 6 -18 6 -41 12 -51 14 -10 2 -109 25 -220 50
-111 26 -209 48 -217 50 -8 2 -35 8 -60 15 -25 6 -54 12 -65 14 -23 4 -234 53
-285 66 -40 10 -165 39 -195 44 -11 2 -38 9 -60 14 -38 10 -58 15 -122 27 -16
3 -34 8 -42 11 -17 6 -189 46 -211 48 -8 2 -24 5 -35 9 -11 3 -31 8 -45 11
-14 3 -34 7 -45 10 -11 2 -74 16 -140 31 -66 15 -127 30 -135 33 -8 3 -26 7
-40 9 -14 2 -50 10 -80 18 -30 8 -68 17 -85 20 -40 8 -60 13 -60 15 0 1 -9 3
-20 4 -11 2 -119 26 -240 55 -121 28 -231 53 -244 56 -12 2 -30 6 -39 9 -9 3
-28 7 -42 10 -47 9 -435 98 -450 104 -8 3 -24 7 -35 9 -40 7 -327 74 -341 80
-7 3 224 123 514 267 290 145 653 326 807 404 292 147 297 148 380 129z m2980
-688 c50 -10 98 -22 107 -25 9 -2 25 -6 35 -8 10 -2 70 -16 133 -31 121 -28
195 -45 308 -70 37 -9 85 -20 107 -26 22 -5 49 -11 60 -13 11 -2 40 -9 65 -16
25 -7 56 -14 70 -17 14 -2 79 -17 145 -32 66 -16 139 -32 162 -36 24 -4 45
-10 48 -14 3 -6 -326 -177 -460 -238 -16 -7 -37 -18 -45 -23 -34 -22 -1046
-520 -1057 -520 -8 0 -9 9 -3 28 4 16 11 60 15 98 4 38 8 71 10 74 1 3 6 30 9
61 4 31 9 67 11 80 3 13 7 47 10 74 3 28 8 64 12 80 3 17 7 41 8 55 4 40 14
113 19 135 2 11 7 49 11 85 4 36 9 67 10 71 2 3 6 30 9 60 3 29 7 63 10 74 2
11 7 42 10 69 4 27 9 53 11 57 3 4 22 3 42 -2 21 -6 79 -19 128 -30z"/>
</g>
</svg>
